<?xml version="1.0" encoding="UTF-8" standalone="no"?><!DOCTYPE svg PUBLIC "-//W3C//DTD SVG 1.1//EN" "http://www.w3.org/Graphics/SVG/1.1/DTD/svg11.dtd"><svg width="100%" height="100%" viewBox="0 0 428 88" version="1.1" xmlns="http://www.w3.org/2000/svg" xmlns:xlink="http://www.w3.org/1999/xlink" xml:space="preserve" xmlns:serif="http://www.serif.com/" style="fill-rule:evenodd;clip-rule:evenodd;stroke-linejoin:round;stroke-miterlimit:1.41421;"><path d="M348.883,16.44l-10.928,0l-24.262,57.125l12.403,0l17.284,-41.313l17.363,41.313l12.403,0l-24.263,-57.125Z" style="fill:#8f9090;fill-rule:nonzero;"/><path d="M391.904,51.242l-24.184,-34.803l13.718,0l16.044,23.1l16.122,-23.1l13.722,0l-24.106,34.803l0,22.325l-11.316,0l0,-22.325Z" style="fill:#8f9090;fill-rule:nonzero;"/><path d="M226.749,53.18l-0.044,0.053l4.385,5.685l-4.341,-5.738Z" style="fill:#8f9090;fill-rule:nonzero;"/><path d="M219.725,44.178l-0.064,-0.08l0.064,-0.052l0.064,0.08l-0.064,0.052Z" style="fill:#8f9090;"/><path d="M208.362,58.91l4.375,-5.675l-0.037,-0.053l-4.338,5.728Z" style="fill:#8f9090;fill-rule:nonzero;"/><path d="M212.699,34.966l0.012,-0.019l-1.306,-1.7l1.294,1.719Z" style="fill:#8f9090;fill-rule:nonzero;"/><path d="M226.749,34.966l1.725,-2.279l-1.741,2.26l0.016,0.019Z" style="fill:#8f9090;fill-rule:nonzero;"/><rect x="114.567" y="16.441" width="42.788" height="11.006" style="fill:#8f9090;"/><path d="M114.568,43.878l0,29.688l11.319,0l0,-18.525l31.381,0l0,-11.163l-42.7,0Z" style="fill:#8f9090;fill-rule:nonzero;"/><rect x="165.107" y="16.441" width="11.316" height="57.125" style="fill:#8f9090;"/><path d="M219.724,44.176l-0.053,-0.066l0.053,-0.062l-21.269,-27.61l-14.05,0l21.319,27.672l-22.713,29.457l14.05,0l22.663,-29.391Z" style="fill:#8f9090;fill-rule:nonzero;"/><path d="M226.706,53.233l-6.981,9.232l8.397,11.1l14.05,0l-11.084,-14.647l-4.382,-5.685Z" style="fill:#8f9090;fill-rule:nonzero;"/><path d="M228.473,32.686l12.306,-16.247l-14.053,0l-6.984,9.222l6.991,9.284l1.74,-2.259Z" style="fill:#8f9090;fill-rule:nonzero;"/><path d="M309.275,21.71c-3.825,-3.512 -8.81,-5.272 -14.96,-5.272l-25.968,0l0,10.932l25.581,0c3.306,0 5.762,0.75 7.362,2.247c1.55,1.446 2.325,3.515 2.325,6.2c0,2.634 -0.775,4.703 -2.325,6.203c-1.6,1.5 -4.056,2.247 -7.362,2.247l-25.581,0l0,29.3l11.318,0l0,-18.45l14.65,0c6.15,0 11.113,-1.729 14.885,-5.194c3.768,-3.563 5.656,-8.291 5.656,-14.181c0,-5.894 -1.863,-10.569 -5.581,-14.032" style="fill:#8f9090;fill-rule:nonzero;"/><path d="M87.778,43.887c0,24.238 -19.65,43.888 -43.887,43.888c-24.241,0 -43.891,-19.65 -43.891,-43.888c0,-24.237 19.65,-43.887 43.891,-43.887c24.237,0 43.887,19.65 43.887,43.887" style="fill:#4fb9cc;fill-rule:nonzero;"/><path d="M57.677,18.238l0,-0.004l-0.109,-0.053c-0.004,-0.003 -0.004,-0.003 -0.007,-0.003l-0.29,-0.144l0,0.007c-2.666,-1.285 -5.485,-2.175 -8.391,-2.65l0,-0.003l0,-11.191l-21.075,15.306l-0.012,0.01l-0.232,0.143l0.244,0.175l0.113,0.085l7.559,5.487l13.403,9.735l0,-10.819c3.091,0.712 5.941,2.056 8.469,4c5.487,4.225 8.637,10.609 8.637,17.519c0,12.184 -9.912,22.096 -22.097,22.096c-12.184,0 -22.096,-9.912 -22.096,-22.096c0,-6.957 3.337,-13.591 8.931,-17.747l0.222,-0.163l-7.338,-5.331l-0.122,0.106c-6.64,5.863 -10.45,14.294 -10.45,23.135c0,17.012 13.841,30.856 30.853,30.856c17.013,0 30.854,-13.844 30.854,-30.856c0,-11.769 -6.535,-22.332 -17.066,-27.6" style="fill:#fff;fill-rule:nonzero;"/></svg>